<svg xmlns="http://www.w3.org/2000/svg" viewBox="0 0 60 24" fill="#41C9B4">
  <path d="M8.8 6.5v11h2.3V9.9l5.7 7.6h2.3v-11h-2.3v7.6l-5.7-7.6H8.8zm13.9 5.5c0 3.1 2.5 5.7 5.7 5.7s5.7-2.6 5.7-5.7-2.5-5.7-5.7-5.7-5.7 2.6-5.7 5.7zm2.3 0c0-1.9 1.5-3.4 3.4-3.4s3.4 1.5 3.4 3.4-1.5 3.4-3.4 3.4-3.4-1.5-3.4-3.4zm13.1-5.3v2.1h2.3v8.7h2.3V8.8h2.3V6.7h-6.9zm10.5 3.2c-.2-.5-.5-.9-1-1.3-.5-.3-1.1-.5-1.9-.5-1.1 0-2 .4-2.7 1.1-.7.7-1 1.7-1 2.9s.3 2.1 1 2.9c.7.7 1.6 1.1 2.7 1.1.8 0 1.4-.2 1.9-.5.5-.3.8-.8 1-1.3l-2-.8c-.2.4-.5.6-1 .6-.4 0-.7-.1-.9-.4-.2-.3-.3-.7-.3-1.2v-.4c0-.5.1-.9.3-1.2.2-.3.5-.4.9-.4.5 0 .8.2 1 .6l2-.8z"/>
</svg>
